{"title":"Scarecrows.1988.DVDRip.XviD-MOTLEY","uid":8396068,"size":1626810735,"categoryP":"video","categoryS":"movies","magnet":"?xt=urn:btih:6bc885fba0b9e12aef32f7481fd9227495aa3914&amp;dn=Scarecrows.1988.DVDRip.XviD-MOTLEY&amp;tr=udp%3A%2F%2Ftracker.openbittorrent.com%3A80&amp;tr=udp%3A%2F%2Fopen.demonii.com%3A1337&amp;tr=udp%3A%2F%2Ftracker.coppersurfer.tk%3A6969&amp;tr=udp%3A%2F%2Fexodus.desync.com%3A6969","seeders":1,"leechers":1,"uploader":"R0thschild","files":6,"time":1366575241,"description":"--------------------------------------------\n &lt;a href=&quot;\nhttp://www.imdb.com/title/tt0096046/?ref_=fn_al_tt_1&quot; rel=&quot;nofollow&quot; target=&quot;_NEW&quot;&gt;\nhttp://www.imdb.com/title/tt0096046/?ref_=fn_al_tt_1&lt;/a&gt;\n\n83 min  -  Horror  -  26 March 1991 (Portugal)\n5,6 Your rating:    -/10   Ratings: 5,6/10 from 2 010 users   \n\nSUBTiTLES.......: Bulgarian\n\nLanguage : English, Russian\n\nFormat                           : Matroska\nFormat version                   : Version 4 / Version 2\nFile size                        : 1.50 GiB\nDuration                         : 1h 23mn\nOverall bit rate                 : 2 583 Kbps\nEncoded date                     : UTC 2013-04-21 08:00:37\nWriting application              : mkvmerge v6.1.0 ('Old Devil' built on Mar  2 2013 14:32:37\nWriting library                  : libebml v1.3.0 + libmatroska v1.4.0\n\nVideo\nID                               : 1\nFormat                           : MPEG-4 Visual\nFormat profile                   : Advanced Simple@L5\nFormat settings, BVOP            : Yes\nFormat settings, QPel            : No\nFormat settings, GMC             : No warppoints\nFormat settings, Matrix          : Custom\nCodec ID                         : XVID\nCodec ID/Hint                    : XviD\nDuration                         : 1h 23mn\nBit rate                         : 2 179 Kbps\nWidth                            : 720 pixels\nHeight                           : 384 pixels\nDisplay aspect ratio             : 1.875\nFrame rate                       : 23.976 fps\nColor space                      : YUV\nChroma subsampling               : 4:2:0\nBit depth                        : 8 bits\nScan type                        : Progressive\nCompression mode                 : Lossy\nBits/(Pixel*Frame)               : 0.329\nStream size                      : 1.27 GiB (84%)\nWriting library                  : XviD 1.2.1 (UTC 2008-12-04)\nLanguage                         : English\n\nAudio #1\nID                               : 2\nFormat                           : MPEG Audio\nFormat version                   : Version 1\nFormat profile                   : Layer 3\nMode                             : Joint stereo\nMode extension                   : MS Stereo\nCodec ID                         : A_MPEG/L3\nCodec ID/Hint                    : MP3\nDuration                         : 1h 23mn\nBit rate mode                    : Constant\nBit rate                         : 128 Kbps\nChannel(s)                       : 2 channels\nSampling rate                    : 48.0 KHz\nCompression mode                 : Lossy\nStream size                      : 76.3 MiB (5%)\nTitle                            : by Motley\nWriting library                  : LAME3.97\nLanguage                         : English\n\nAudio #2\nID                               : 3\nFormat                           : AC-3\nFormat/Info                      : Audio Coding 3\nMode extension                   : CM (complete main)\nCodec ID                         : A_AC3\nDuration                         : 1h 23mn\nBit rate mode                    : Constant\nBit rate                         : 224 Kbps\nChannel(s)                       : 2 channels\nChannel positions                : Front: L R\nSampling rate                    : 48.0 KHz\nBit depth                        : 16 bits\nCompression mode                 : Lossy\nStream size                      : 134 MiB (9%)\nLanguage                         : Russian\n\n--------------------------------------------\n\nMore at   &lt;a href=&quot;\nhttp://publichash.com/&quot; rel=&quot;nofollow&quot; target=&quot;_NEW&quot;&gt;\nhttp://publichash.com/&lt;/a&gt;\n\n--------------------------------------------\t","torrent":{"xt":"urn:btih:6bc885fba0b9e12aef32f7481fd9227495aa3914","amp;dn":"Scarecrows.1988.DVDRip.XviD-MOTLEY","amp;tr":["udp%3A%2F%2Ftracker.openbittorrent.com%3A80","udp%3A%2F%2Fopen.demonii.com%3A1337","udp%3A%2F%2Ftracker.coppersurfer.tk%3A6969","udp%3A%2F%2Fexodus.desync.com%3A6969"],"infoHash":"6bc885fba0b9e12aef32f7481fd9227495aa3914","infoHashBuffer":{"type":"Buffer","data":[107,200,133,251,160,185,225,42,239,50,247,72,31,217,34,116,149,170,57,20]},"announce":[],"urlList":[]}}